<svg width="20" height="20" viewBox="0 0 20 20" fill="none" xmlns="http://www.w3.org/2000/svg">
<path d="M6.58341 16.6664C8.1739 17.4823 10.0035 17.7033 11.7425 17.2895C13.4815 16.8758 15.0155 15.8546 16.0682 14.4099C17.1209 12.9652 17.6229 11.192 17.4839 9.40985C17.3449 7.62772 16.5739 5.95385 15.3099 4.68987C14.0459 3.42589 12.3721 2.65492 10.5899 2.51589C8.80782 2.37686 7.03464 2.87892 5.58993 3.93159C4.14522 4.98425 3.12399 6.51831 2.71027 8.25731C2.29654 9.99631 2.51753 11.8259 3.33341 13.4164L1.66675 18.333L6.58341 16.6664Z" stroke="#999999" stroke-width="1.66667" stroke-linecap="round" stroke-linejoin="round"/>
<path d="M6.66675 10H6.67508" stroke="#999999" stroke-width="1.66667" stroke-linecap="round" stroke-linejoin="round"/>
<path d="M10 10H10.0083" stroke="#999999" stroke-width="1.66667" stroke-linecap="round" stroke-linejoin="round"/>
<path d="M13.3333 10H13.3416" stroke="#999999" stroke-width="1.66667" stroke-linecap="round" stroke-linejoin="round"/>
</svg>
