<svg width="20" height="20" viewBox="0 0 20 20" fill="none" xmlns="http://www.w3.org/2000/svg">
<path d="M7.33341 16.6667V13.25L8.91675 13.4167C9.3777 13.3911 9.81391 13.2 10.1452 12.8784C10.4765 12.5569 10.6806 12.1267 10.7201 11.6667V6.91669C10.7256 5.71614 10.254 4.56257 9.40898 3.70975C8.56398 2.85693 7.41479 2.37471 6.21425 2.36919C5.0137 2.36366 3.86013 2.83528 3.00731 3.68029C2.15449 4.52529 1.67227 5.67448 1.66675 6.87502C1.66675 9.20836 2.21341 9.42002 2.50008 10.6667C2.69382 11.4196 2.70211 12.2082 2.52425 12.965L1.66675 16.6667" stroke="#3DC0C1" stroke-width="1.66667" stroke-linecap="round" stroke-linejoin="round"/>
<path d="M16.5 14.8329C17.6715 13.6613 18.3299 12.0724 18.3303 10.4155C18.3308 8.75864 17.6734 7.16938 16.5025 5.99707" stroke="#3DC0C1" stroke-width="1.66667" stroke-linecap="round" stroke-linejoin="round"/>
<path d="M14.1666 12.5003C14.4392 12.2277 14.6551 11.9038 14.8018 11.5472C14.9485 11.1907 15.023 10.8086 15.021 10.4231C15.0191 10.0375 14.9407 9.6562 14.7905 9.30114C14.6403 8.94608 14.4211 8.62433 14.1458 8.35449" stroke="#3DC0C1" stroke-width="1.66667" stroke-linecap="round" stroke-linejoin="round"/>
</svg>
