<svg width="16" height="16" viewBox="0 0 16 16" fill="none" xmlns="http://www.w3.org/2000/svg">
<path d="M1.33325 8.00033C1.33325 5.48617 1.33325 4.22909 2.1143 3.44804C2.89535 2.66699 4.15243 2.66699 6.66658 2.66699H9.33325C11.8474 2.66699 13.1045 2.66699 13.8855 3.44804C14.6666 4.22909 14.6666 5.48617 14.6666 8.00033C14.6666 10.5145 14.6666 11.7716 13.8855 12.5526C13.1045 13.3337 11.8474 13.3337 9.33325 13.3337H6.66658C4.15243 13.3337 2.89535 13.3337 2.1143 12.5526C1.33325 11.7716 1.33325 10.5145 1.33325 8.00033Z" stroke="#666666" stroke-width="1.5"/>
<path d="M4 5.33301L5.43926 6.53239C6.66369 7.55275 7.2759 8.06292 8 8.06292C8.7241 8.06292 9.33631 7.55275 10.5607 6.53239L12 5.33301" stroke="#666666" stroke-width="1.5" stroke-linecap="round"/>
</svg>
