<svg width="16" height="17" viewBox="0 0 16 17" fill="none" xmlns="http://www.w3.org/2000/svg">
<path d="M1.37468 8.82599C1.31912 8.67631 1.31912 8.51167 1.37468 8.36199C1.91581 7.04989 2.83435 5.92802 4.01386 5.13859C5.19336 4.34916 6.58071 3.92773 8.00001 3.92773C9.41932 3.92773 10.8067 4.34916 11.9862 5.13859C13.1657 5.92802 14.0842 7.04989 14.6253 8.36199C14.6809 8.51167 14.6809 8.67631 14.6253 8.82599C14.0842 10.1381 13.1657 11.26 11.9862 12.0494C10.8067 12.8388 9.41932 13.2602 8.00001 13.2602C6.58071 13.2602 5.19336 12.8388 4.01386 12.0494C2.83435 11.26 1.91581 10.1381 1.37468 8.82599Z" stroke="#EAF0F7" stroke-width="1.33333" stroke-linecap="round" stroke-linejoin="round"/>
<path d="M8 10.5938C9.10457 10.5938 10 9.69832 10 8.59375C10 7.48918 9.10457 6.59375 8 6.59375C6.89543 6.59375 6 7.48918 6 8.59375C6 9.69832 6.89543 10.5938 8 10.5938Z" stroke="#EAF0F7" stroke-width="1.33333" stroke-linecap="round" stroke-linejoin="round"/>
</svg>
