<svg width="20" height="21" viewBox="0 0 20 21" fill="none" xmlns="http://www.w3.org/2000/svg">
<g clip-path="url(#clip0_341_921)">
<mask id="mask0_341_921" style="mask-type:luminance" maskUnits="userSpaceOnUse" x="0" y="0" width="20" height="21">
<path d="M19.6307 8.27557H10.3125V12.1392H15.6761C15.1761 14.5938 13.0852 16.0028 10.3125 16.0028C7.03978 16.0028 4.40341 13.3665 4.40341 10.0938C4.40341 6.82102 7.03978 4.18466 10.3125 4.18466C11.7216 4.18466 12.9943 4.68466 13.9943 5.50284L16.9034 2.59375C15.1307 1.0483 12.858 0.09375 10.3125 0.09375C4.76705 0.09375 0.3125 4.5483 0.3125 10.0938C0.3125 15.6392 4.76705 20.0938 10.3125 20.0938C15.3125 20.0938 19.858 16.4574 19.858 10.0938C19.858 9.50284 19.7671 8.86648 19.6307 8.27557Z" fill="white"/>
</mask>
<g mask="url(#mask0_341_921)">
<path d="M-0.59668 16.0028V4.18457L7.1306 10.0937L-0.59668 16.0028Z" fill="#FBBC05"/>
</g>
<mask id="mask1_341_921" style="mask-type:luminance" maskUnits="userSpaceOnUse" x="0" y="0" width="20" height="21">
<path d="M19.6307 8.27557H10.3125V12.1392H15.6761C15.1761 14.5938 13.0852 16.0028 10.3125 16.0028C7.03978 16.0028 4.40341 13.3665 4.40341 10.0938C4.40341 6.82102 7.03978 4.18466 10.3125 4.18466C11.7216 4.18466 12.9943 4.68466 13.9943 5.50284L16.9034 2.59375C15.1307 1.0483 12.858 0.09375 10.3125 0.09375C4.76705 0.09375 0.3125 4.5483 0.3125 10.0938C0.3125 15.6392 4.76705 20.0938 10.3125 20.0938C15.3125 20.0938 19.858 16.4574 19.858 10.0938C19.858 9.50284 19.7671 8.86648 19.6307 8.27557Z" fill="white"/>
</mask>
<g mask="url(#mask1_341_921)">
<path d="M-0.59668 4.18457L7.1306 10.0937L10.3124 7.32094L21.2215 5.54821V-0.81543H-0.59668V4.18457Z" fill="#EA4335"/>
</g>
<mask id="mask2_341_921" style="mask-type:luminance" maskUnits="userSpaceOnUse" x="0" y="0" width="20" height="21">
<path d="M19.6307 8.27557H10.3125V12.1392H15.6761C15.1761 14.5938 13.0852 16.0028 10.3125 16.0028C7.03978 16.0028 4.40341 13.3665 4.40341 10.0938C4.40341 6.82102 7.03978 4.18466 10.3125 4.18466C11.7216 4.18466 12.9943 4.68466 13.9943 5.50284L16.9034 2.59375C15.1307 1.0483 12.858 0.09375 10.3125 0.09375C4.76705 0.09375 0.3125 4.5483 0.3125 10.0938C0.3125 15.6392 4.76705 20.0938 10.3125 20.0938C15.3125 20.0938 19.858 16.4574 19.858 10.0938C19.858 9.50284 19.7671 8.86648 19.6307 8.27557Z" fill="white"/>
</mask>
<g mask="url(#mask2_341_921)">
<path d="M-0.59668 16.0028L13.0397 5.54821L16.6306 6.00275L21.2215 -0.81543V21.0028H-0.59668V16.0028Z" fill="#34A853"/>
</g>
<mask id="mask3_341_921" style="mask-type:luminance" maskUnits="userSpaceOnUse" x="0" y="0" width="20" height="21">
<path d="M19.6307 8.27557H10.3125V12.1392H15.6761C15.1761 14.5938 13.0852 16.0028 10.3125 16.0028C7.03978 16.0028 4.40341 13.3665 4.40341 10.0938C4.40341 6.82102 7.03978 4.18466 10.3125 4.18466C11.7216 4.18466 12.9943 4.68466 13.9943 5.50284L16.9034 2.59375C15.1307 1.0483 12.858 0.09375 10.3125 0.09375C4.76705 0.09375 0.3125 4.5483 0.3125 10.0938C0.3125 15.6392 4.76705 20.0938 10.3125 20.0938C15.3125 20.0938 19.858 16.4574 19.858 10.0938C19.858 9.50284 19.7671 8.86648 19.6307 8.27557Z" fill="white"/>
</mask>
<g mask="url(#mask3_341_921)">
<path d="M21.2216 21.0028L7.13068 10.0937L5.3125 8.73003L21.2216 4.18457V21.0028Z" fill="#4285F4"/>
</g>
</g>
<defs>
<clipPath id="clip0_341_921">
<rect width="20" height="20" fill="white" transform="translate(0 0.09375)"/>
</clipPath>
</defs>
</svg>
