<svg width="16" height="16" viewBox="0 0 16 16" fill="none" xmlns="http://www.w3.org/2000/svg">
<path d="M6.69181 3.54444L7.12448 4.31973C7.51495 5.01938 7.3582 5.93721 6.74322 6.55219C6.74322 6.55219 6.74322 6.55219 6.74322 6.55219C6.74311 6.55231 5.99737 7.29826 7.34976 8.65065C8.70149 10.0024 9.4474 9.258 9.44821 9.25719C9.44824 9.25716 9.44823 9.25717 9.44825 9.25715C10.0632 8.6422 10.981 8.48546 11.6807 8.87592L12.456 9.3086C13.5125 9.89821 13.6372 11.3798 12.7086 12.3085C12.1506 12.8665 11.467 13.3006 10.7114 13.3293C9.43927 13.3775 7.27893 13.0556 5.11188 10.8885C2.94483 8.72147 2.62289 6.56114 2.67112 5.28905C2.69976 4.53339 3.13395 3.84982 3.69195 3.29181C4.62058 2.36318 6.1022 2.48795 6.69181 3.54444Z" stroke="#666666" stroke-width="1.5" stroke-linecap="round"/>
</svg>
