<svg width="20" height="20" viewBox="0 0 20 20" fill="none" xmlns="http://www.w3.org/2000/svg">
<path d="M10.1833 1.66699H9.81667C9.37464 1.66699 8.95072 1.84259 8.63816 2.15515C8.3256 2.46771 8.15 2.89163 8.15 3.33366V3.48366C8.1497 3.77593 8.07255 4.06298 7.92628 4.31602C7.78002 4.56906 7.56978 4.77919 7.31667 4.92533L6.95834 5.13366C6.70497 5.27994 6.41756 5.35695 6.125 5.35695C5.83244 5.35695 5.54503 5.27994 5.29167 5.13366L5.16667 5.06699C4.78422 4.84638 4.32987 4.78653 3.90334 4.90058C3.47681 5.01464 3.11296 5.29327 2.89167 5.67533L2.70833 5.99199C2.48772 6.37444 2.42787 6.82879 2.54192 7.25532C2.65598 7.68185 2.93461 8.0457 3.31667 8.26699L3.44167 8.35033C3.69356 8.49575 3.90302 8.70457 4.04921 8.95602C4.1954 9.20747 4.27325 9.4928 4.275 9.78366V10.2087C4.27617 10.5023 4.19971 10.7911 4.05337 11.0457C3.90703 11.3004 3.69601 11.5118 3.44167 11.6587L3.31667 11.7337C2.93461 11.955 2.65598 12.3188 2.54192 12.7453C2.42787 13.1719 2.48772 13.6262 2.70833 14.0087L2.89167 14.3253C3.11296 14.7074 3.47681 14.986 3.90334 15.1001C4.32987 15.2141 4.78422 15.1543 5.16667 14.9337L5.29167 14.867C5.54503 14.7207 5.83244 14.6437 6.125 14.6437C6.41756 14.6437 6.70497 14.7207 6.95834 14.867L7.31667 15.0753C7.56978 15.2215 7.78002 15.4316 7.92628 15.6846C8.07255 15.9377 8.1497 16.2247 8.15 16.517V16.667C8.15 17.109 8.3256 17.5329 8.63816 17.8455C8.95072 18.1581 9.37464 18.3337 9.81667 18.3337H10.1833C10.6254 18.3337 11.0493 18.1581 11.3618 17.8455C11.6744 17.5329 11.85 17.109 11.85 16.667V16.517C11.8503 16.2247 11.9275 15.9377 12.0737 15.6846C12.22 15.4316 12.4302 15.2215 12.6833 15.0753L13.0417 14.867C13.295 14.7207 13.5824 14.6437 13.875 14.6437C14.1676 14.6437 14.455 14.7207 14.7083 14.867L14.8333 14.9337C15.2158 15.1543 15.6701 15.2141 16.0967 15.1001C16.5232 14.986 16.887 14.7074 17.1083 14.3253L17.2917 14.0003C17.5123 13.6179 17.5721 13.1635 17.4581 12.737C17.344 12.3105 17.0654 11.9466 16.6833 11.7253L16.5583 11.6587C16.304 11.5118 16.093 11.3004 15.9466 11.0457C15.8003 10.7911 15.7238 10.5023 15.725 10.2087V9.79199C15.7238 9.49831 15.8003 9.20953 15.9466 8.9549C16.093 8.70027 16.304 8.48883 16.5583 8.34199L16.6833 8.26699C17.0654 8.0457 17.344 7.68185 17.4581 7.25532C17.5721 6.82879 17.5123 6.37444 17.2917 5.99199L17.1083 5.67533C16.887 5.29327 16.5232 5.01464 16.0967 4.90058C15.6701 4.78653 15.2158 4.84638 14.8333 5.06699L14.7083 5.13366C14.455 5.27994 14.1676 5.35695 13.875 5.35695C13.5824 5.35695 13.295 5.27994 13.0417 5.13366L12.6833 4.92533C12.4302 4.77919 12.22 4.56906 12.0737 4.31602C11.9275 4.06298 11.8503 3.77593 11.85 3.48366V3.33366C11.85 2.89163 11.6744 2.46771 11.3618 2.15515C11.0493 1.84259 10.6254 1.66699 10.1833 1.66699Z" stroke="#999999" stroke-width="1.66667" stroke-linecap="round" stroke-linejoin="round"/>
<path d="M10 12.5C11.3807 12.5 12.5 11.3807 12.5 10C12.5 8.61929 11.3807 7.5 10 7.5C8.61929 7.5 7.5 8.61929 7.5 10C7.5 11.3807 8.61929 12.5 10 12.5Z" stroke="#999999" stroke-width="1.66667" stroke-linecap="round" stroke-linejoin="round"/>
</svg>
